<svg xmlns="http://www.w3.org/2000/svg" viewBox="0 0 610 610" width="100" height="100"><path d="M0 289h1C1 139.18 138.86 6.61 285 0H0z" fill="none"/><path d="M1 289v31c0 149.45 139.53 289 289 289h30c150.25 0 283.33-137.1 290-284v-8c-1.82-6.42-1-14.82-1-22v-10C609 137.11 468.98 6.97 326 0h-7c-8.59 1.65-20.48 1.68-29 0h-5C138.86 6.61 1 139.18 1 289m315 286c-7.24.7-15.83.69-23 0-132.3 0-258-122.95-258-256-.82-8.49-.82-18.58 0-27 0-69.91 33.45-133.5 83.25-182.75S239.65 32.4 310 34s137.25 29.39 187.25 79.75c50 50.37 77.51 116.72 78.75 187.25s-26.26 141.11-75.75 191.25C450.75 542.38 386.41 575 316 575Z" fill="none" stroke="#FCFCFC" stroke-opacity=".98" stroke-width=".3"/><path d="M319 0h-29c8.52 1.68 20.41 1.65 29 0Z" fill="none" stroke="#FDFDFD" stroke-opacity=".56" stroke-width=".3"/><path d="M609 285c0-.04 1 0 1 0V0H326c142.98 6.97 283 137.11 283 285" fill="none"/><path d="M35 292v27c0 133.05 125.7 256 258 256h23c70.41 0 134.75-32.62 184.25-82.75C549.74 442.11 577.24 371.53 576 301s-28.75-136.88-78.75-187.25C447.25 63.39 380.35 35.6 310 34s-141.95 26-191.75 75.25S35 222.09 35 292m292 180c-5.67.55-12.4.54-18 0-55.81 0-107.71-28.44-131.32-80.68-23.62-52.24-23.72-120.2 5.24-171.4C211.89 168.73 269.93 148.77 326 151s110.75 32.95 120 92c-20.95 2.49-41.27 7.51-62 11-2.89-8.53-6.45-16.66-12.25-23.75s-11.02-12.44-19.45-16.55c-8.42-4.12-17.42-7.86-27.37-8.63s-24.52-.12-33.94 1.92c-9.42 2.05-17.67 5.44-25.69 10.31-8.01 4.88-13.07 9.66-19.07 16.93s-9.69 13.78-13.16 22.84c-3.46 9.06-5.74 18.73-7.06 28.94S224.88 311.42 225 322s2.52 21.64 4.93 31.07c2.41 9.44 5.26 17.91 10.32 25.68 5.07 7.76 8.84 13.94 16 20 7.15 6.07 13.75 9.87 22.43 13.57s19.43 6.25 29.32 6.68 23.45-.69 32.22-3.78c8.78-3.09 18.77-4.66 26.01-9.99 7.23-5.33 18.6-5.54 20.76-15.24s-1.6-26.63.01-36.99h-72v-52h135c-.49 18.51.66 39.77 0 58s1.25 41.85 0 59-18.98 19.41-31.08 27.92c-12.09 8.52-27.17 12.31-41.6 17.4S343.1 471.64 327 472Z" fill="none" stroke="#EF851A" stroke-width=".3"/><path d="M309 472h18c16.1-.36 35.89-3.59 50.32-8.68s29.51-8.88 41.6-17.4c12.1-8.51 29.83-10.77 31.08-27.92s-.66-40.77 0-59-.49-39.49 0-58H315v52h72c-1.61 10.36 2.15 27.29-.01 36.99s-13.53 9.91-20.76 15.24c-7.24 5.33-17.23 6.9-26.01 9.99-8.77 3.09-22.33 4.21-32.22 3.78s-20.64-2.98-29.32-6.68-15.28-7.5-22.43-13.57c-7.16-6.06-10.93-12.24-16-20-5.06-7.77-7.91-16.24-10.32-25.68-2.41-9.43-4.81-20.49-4.93-31.07s-.31-25.78 1.01-35.99 3.6-19.88 7.06-28.94c3.47-9.06 7.16-15.57 13.16-22.84s11.06-12.05 19.07-16.93c8.02-4.87 16.27-8.26 25.69-10.31 9.42-2.04 23.99-2.69 33.94-1.92s18.95 4.51 27.37 8.63c8.43 4.11 13.65 9.46 19.45 16.55S381.11 245.47 384 254c20.73-3.49 41.05-8.51 62-11-9.25-59.05-63.93-89.77-120-92s-114.11 17.73-143.08 68.92c-28.96 51.2-28.86 119.16-5.24 171.4C201.29 443.56 253.19 472 309 472Z" fill="none" stroke="#FDFDFD" stroke-width=".3"/><path d="M609 295c0-.04 1 0 1 0v-10s-1-.04-1 0z" fill="none" stroke="#F9F9F9" stroke-opacity=".29" stroke-width=".3"/><path d="M0 320h1v-31H0z" fill="none" stroke="#F6F6F6" stroke-opacity=".25" stroke-width=".3"/><path d="M35 319v-27c-.82 8.42-.82 18.51 0 27Z" fill="none" stroke="#EFC091" stroke-width=".3"/><path d="M610 317v-22s-1-.04-1 0c0 7.18-.82 15.58 1 22Z" fill="none" stroke="#FDFDFD" stroke-opacity=".59" stroke-width=".3"/><path d="M0 610h290v-1C140.53 609 1 469.45 1 320H0zm320-1c.04 0 0 1 0 1h290V325c-6.67 146.9-139.75 284-290 284" fill="none"/><path d="M327 472h-18c5.6.54 12.33.55 18 0Z" fill="none" stroke="#F7C592" stroke-width=".3"/><path d="M316 575h-23c7.17.69 15.76.7 23 0Z" fill="none" stroke="#EFBE8D" stroke-width=".3"/><path d="M290 610h30s.04-1 0-1h-30z" fill="none" stroke="#F7F7F7" stroke-opacity=".24" stroke-width=".3"/><path d="M0 289h1C1 139.18 138.86 6.61 285 0H0z" stroke="None" fill="none"/><path d="M1 289v31c0 149.45 139.53 289 289 289h30c150.25 0 283.33-137.1 290-284v-8c-1.82-6.42-1-14.82-1-22v-10C609 137.11 468.98 6.97 326 0h-7c-8.59 1.65-20.48 1.68-29 0h-5C138.86 6.61 1 139.18 1 289m315 286c-7.24.7-15.83.69-23 0-132.3 0-258-122.95-258-256-.82-8.49-.82-18.58 0-27 0-69.91 33.45-133.5 83.25-182.75S239.65 32.4 310 34s137.25 29.39 187.25 79.75c50 50.37 77.51 116.72 78.75 187.25s-26.26 141.11-75.75 191.25C450.75 542.38 386.41 575 316 575Z" fill="#FCFCFC" fill-opacity=".98" stroke="None"/><path d="M319 0h-29c8.52 1.68 20.41 1.65 29 0Z" fill="#FDFDFD" fill-opacity=".56" stroke="None"/><path d="M609 285c0-.04 1 0 1 0V0H326c142.98 6.97 283 137.11 283 285Z" stroke="None" fill="none"/><path d="M35 292v27c0 133.05 125.7 256 258 256h23c70.41 0 134.75-32.62 184.25-82.75C549.74 442.11 577.24 371.53 576 301s-28.75-136.88-78.75-187.25C447.25 63.39 380.35 35.6 310 34s-141.95 26-191.75 75.25S35 222.09 35 292m292 180c-5.67.55-12.4.54-18 0-55.81 0-107.71-28.44-131.32-80.68-23.62-52.24-23.72-120.2 5.24-171.4C211.89 168.73 269.93 148.77 326 151s110.75 32.95 120 92c-20.95 2.49-41.27 7.51-62 11-2.89-8.53-6.45-16.66-12.25-23.75s-11.02-12.44-19.45-16.55c-8.42-4.12-17.42-7.86-27.37-8.63s-24.52-.12-33.94 1.92c-9.42 2.05-17.67 5.44-25.69 10.31-8.01 4.88-13.07 9.66-19.07 16.93s-9.69 13.78-13.16 22.84c-3.46 9.06-5.74 18.73-7.06 28.94S224.88 311.42 225 322s2.52 21.64 4.93 31.07c2.41 9.44 5.26 17.91 10.32 25.68 5.07 7.76 8.84 13.94 16 20 7.15 6.07 13.75 9.87 22.43 13.57s19.43 6.25 29.32 6.68 23.45-.69 32.22-3.78c8.78-3.09 18.77-4.66 26.01-9.99 7.23-5.33 18.6-5.54 20.76-15.24s-1.6-26.63.01-36.99h-72v-52h135c-.49 18.51.66 39.77 0 58s1.25 41.85 0 59-18.98 19.41-31.08 27.92c-12.09 8.52-27.17 12.31-41.6 17.4S343.1 471.64 327 472Z" fill="#EF851A" stroke="None"/><path d="M309 472h18c16.1-.36 35.89-3.59 50.32-8.68s29.51-8.88 41.6-17.4c12.1-8.51 29.83-10.77 31.08-27.92s-.66-40.77 0-59-.49-39.49 0-58H315v52h72c-1.61 10.36 2.15 27.29-.01 36.99s-13.53 9.91-20.76 15.24c-7.24 5.33-17.23 6.9-26.01 9.99-8.77 3.09-22.33 4.21-32.22 3.78s-20.64-2.98-29.32-6.68-15.28-7.5-22.43-13.57c-7.16-6.06-10.93-12.24-16-20-5.06-7.77-7.91-16.24-10.32-25.68-2.41-9.43-4.81-20.49-4.93-31.07s-.31-25.78 1.01-35.99 3.6-19.88 7.06-28.94c3.47-9.06 7.16-15.57 13.16-22.84s11.06-12.05 19.07-16.93c8.02-4.87 16.27-8.26 25.69-10.31 9.42-2.04 23.99-2.69 33.94-1.92s18.95 4.51 27.37 8.63c8.43 4.11 13.65 9.46 19.45 16.55S381.11 245.47 384 254c20.73-3.49 41.05-8.51 62-11-9.25-59.05-63.93-89.77-120-92s-114.11 17.73-143.08 68.92c-28.96 51.2-28.86 119.16-5.24 171.4C201.29 443.56 253.19 472 309 472Z" fill="#FDFDFD" stroke="None"/><path d="M609 295c0-.04 1 0 1 0v-10s-1-.04-1 0z" fill="#F9F9F9" fill-opacity=".29" stroke="None"/><path d="M0 320h1v-31H0z" fill="#F6F6F6" fill-opacity=".25" stroke="None"/><path d="M35 319v-27c-.82 8.42-.82 18.51 0 27Z" fill="#EFC091" stroke="None"/><path d="M610 317v-22s-1-.04-1 0c0 7.18-.82 15.58 1 22Z" fill="#FDFDFD" fill-opacity=".59" stroke="None"/><path d="M0 610h290v-1C140.53 609 1 469.45 1 320H0zm320-1c.04 0 0 1 0 1h290V325c-6.67 146.9-139.75 284-290 284Z" stroke="None" fill="none"/><path d="M327 472h-18c5.6.54 12.33.55 18 0Z" fill="#F7C592" stroke="None"/><path d="M316 575h-23c7.17.69 15.76.7 23 0Z" fill="#EFBE8D" stroke="None"/><path d="M290 610h30s.04-1 0-1h-30z" fill="#F7F7F7" fill-opacity=".24" stroke="None"/></svg>