<svg version="1.0" xmlns="http://www.w3.org/2000/svg" width="100" height="100" viewBox="0 0 75 77"><circle cx="37.5" cy="38.5" r="38" fill="#fff" stroke="#000" stroke-width=".2"/><path d="M34.473 6.806c-7.512.778-14.271 4.003-19.485 9.279-4.868 4.93-7.821 10.824-8.896 17.78-.309 2.014-.309 7.018 0 9.02.914 5.844 3.151 10.947 6.746 15.42 1.248 1.544 3.942 4.164 5.449 5.288 10.354 7.772 24.106 8.6 35.165 2.138C64.857 59.059 70.911 46.073 68.687 33c-1.1-6.487-4.114-12.294-8.822-16.989-5.016-5.004-10.96-7.982-18.003-9.032-1.52-.222-5.918-.321-7.389-.173m20.486 8.13c-.086.123-3.497 4.028-7.574 8.662-4.077 4.646-7.426 8.489-7.451 8.55s3.089.123 7.525.136l7.587.037-16.557 13.591c-15.347 12.603-19.659 16.1-19.77 15.989-.012-.025 3.719-5.214 8.303-11.528 4.572-6.314 8.303-11.491 8.266-11.528-.025-.025-2.891-.185-6.363-.334-3.472-.161-6.338-.309-6.376-.334-.025-.037 3.818-5.325 8.563-11.763l8.612-11.689 7.698-.012c7.426 0 7.698.012 7.537.222" fill="#D9538F" stroke="#000" stroke-width=".2"/></svg>